<svg width="32" height="32" viewBox="0 0 32 32" fill="none" xmlns="http://www.w3.org/2000/svg">
<path d="M3.30758 6.25891C2.05077 7.8941 1.10308 9.77879 0.55127 11.8262H8.87489L3.30758 6.25891Z" fill="#0052B4"/>
<path d="M31.449 11.8262C30.8972 9.77885 29.9494 7.89416 28.6927 6.25897L23.1255 11.8262H31.449Z" fill="#0052B4"/>
<path d="M0.55127 20.174C1.10314 22.2214 2.05083 24.1061 3.30758 25.7412L8.87471 20.174H0.55127Z" fill="#0052B4"/>
<path d="M25.7413 3.30758C24.1061 2.05077 22.2215 1.10308 20.1741 0.551208V8.87477L25.7413 3.30758Z" fill="#0052B4"/>
<path d="M6.25903 28.6924C7.89422 29.9492 9.77891 30.8969 11.8263 31.4488V23.1253L6.25903 28.6924Z" fill="#0052B4"/>
<path d="M11.8262 0.551208C9.77885 1.10308 7.89416 2.05077 6.25903 3.30752L11.8262 8.87471V0.551208Z" fill="#0052B4"/>
<path d="M20.1741 31.4488C22.2214 30.8969 24.1061 29.9492 25.7413 28.6925L20.1741 23.1253V31.4488Z" fill="#0052B4"/>
<path d="M23.1255 20.174L28.6927 25.7413C29.9494 24.1061 30.8972 22.2214 31.449 20.174H23.1255Z" fill="#0052B4"/>
</svg>
